<svg width="1920" height="1053" viewBox="0 0 1920 1053" fill="none" xmlns="http://www.w3.org/2000/svg">
<rect width="1920" height="1053" fill="#3EC5A4"/>
<g id="Frame 1">
<rect width="1920" height="1080" fill="white"/>
<g id="final svg 2" clip-path="url(#clip0)">
<g id="undraw_version_control_re_mg66 1">
<g id="Ellipse 278" filter="url(#filter0_i)">
<path id="Vector" d="M1858.67 190.609C1920.52 190.609 1970.67 140.48 1970.67 78.6428C1970.67 16.8057 1920.52 -33.3232 1858.67 -33.3232C1796.81 -33.3232 1746.67 16.8057 1746.67 78.6428C1746.67 140.48 1796.81 190.609 1858.67 190.609Z" fill="#D6FFFA"/>
</g>
<path id="Path 444" d="M1044.35 914.483C1012.17 923.838 1011.79 877.793 1006.67 857.073C1024.86 869.613 1055.53 887.49 1044.23 913.924" fill="#6C63FF"/>
<path id="Path 445" d="M1041.8 949.657C1046.02 925.711 1046.29 895.383 1022.85 881.23C1021.73 880.52 1020.7 882.3 1021.81 883.006C1044.45 896.727 1043.77 926.027 1039.82 949.109C1039.76 949.369 1039.8 949.642 1039.93 949.873C1040.07 950.102 1040.29 950.27 1040.55 950.341C1040.8 950.411 1041.08 950.381 1041.31 950.253C1041.54 950.125 1041.72 949.91 1041.8 949.655L1041.8 949.657Z" fill="#3F3D56"/>
<path id="Path 446" d="M1032 932.653C1017.07 952.179 996.291 926.033 984 916.45C1000.39 915.599 1026.58 912.307 1031.68 932.385" fill="#6C63FF"/>
<path id="Path 447" d="M1046.53 955.656C1037.98 939.69 1024.33 921.636 1003.53 923.915C1002.18 924.028 1002.51 926.061 1003.86 925.948C1023.63 923.953 1036.48 941.297 1044.6 956.495C1045.26 957.638 1047.2 956.812 1046.53 955.656Z" fill="#3F3D56"/>
<path id="Path 448" d="M1179.99 881.592C1124.2 897.75 1123.54 818.218 1114.67 782.429C1146.2 804.089 1199.36 834.969 1179.78 880.624" fill="#6C63FF"/>
<path id="Path 449" d="M1177.45 943.784C1184.9 901.879 1185.37 848.803 1144.01 824.036C1142.03 822.795 1140.21 825.91 1142.18 827.146C1182.12 851.157 1180.93 902.432 1173.95 942.826C1173.84 943.28 1173.92 943.759 1174.16 944.161C1174.4 944.564 1174.78 944.857 1175.24 944.981C1175.69 945.106 1176.17 945.05 1176.59 944.826C1177 944.602 1177.31 944.228 1177.45 943.783L1177.45 943.784Z" fill="#3F3D56"/>
<path id="Path 450" d="M1158.67 913.83C1132.96 948.544 1097.17 902.062 1076 885.024C1104.23 883.514 1149.33 877.66 1158.11 913.354" fill="#6C63FF"/>
<path id="Path 451" d="M1185.09 954.602C1170.33 926.504 1146.76 894.725 1110.82 898.739C1108.48 898.937 1109.07 902.516 1111.4 902.316C1145.54 898.804 1167.75 929.33 1181.76 956.079C1182.91 958.09 1186.25 956.637 1185.09 954.602Z" fill="#3F3D56"/>
<path id="ground" d="M1920 1097H0V969.705H1920V1097Z" fill="url(#paint0_linear)"/>
<path id="Ellipse 277" d="M846.727 996.933C846.727 1015.84 569.209 1053.33 434.765 1053.33C300.321 1053.33 285.235 1015.84 285.235 996.933C285.235 978.022 394.223 962.691 528.667 962.691C663.111 962.691 846.727 978.022 846.727 996.933Z" fill="#C4C4C4" fill-opacity="0.25"/>
<g id="tree 2nd">
<path id="Vector_2" d="M1365.31 954.869C1365.31 954.869 1371.97 926.877 1418.64 936.208C1465.31 945.538 1471.97 954.869 1471.97 954.869H1365.31Z" fill="#3F3D56"/>
<path id="Vector_2_2" d="M1371.88 906.725C1382.99 927.332 1406.59 936.177 1406.59 936.177C1406.59 936.177 1412.15 911.612 1401.04 891.007C1389.92 870.4 1366.33 861.553 1366.33 861.553C1366.33 861.553 1360.76 886.118 1371.88 906.725Z" fill="#3F3D56"/>
<path id="Vector_3" d="M1379.52 899.945C1399.59 912.014 1407.31 935.986 1407.31 935.986C1407.31 935.986 1382.51 940.392 1362.44 928.322C1342.37 916.254 1334.64 892.281 1334.64 892.281C1334.64 892.281 1359.45 887.876 1379.52 899.945Z" fill="#6C63FF"/>
<path id="Vector_4" d="M1676.35 575.641C1676.35 740.404 1578.37 797.934 1457.51 797.934C1336.64 797.934 1238.67 740.404 1238.67 575.641C1238.67 410.878 1457.51 201.272 1457.51 201.272C1457.51 201.272 1676.35 410.878 1676.35 575.641Z" fill="url(#paint1_angular)"/>
<path id="Vector_5" d="M1449.53 772.729L1451.77 634.838L1545.05 464.246L1452.13 613.206L1453.13 551.205L1517.43 427.782L1453.4 534.796L1455.21 423.283L1524.05 325.024L1455.49 405.749L1456.63 201.272L1449.52 471.961L1450.11 460.795L1380.11 353.698L1448.99 482.231L1442.45 606.772L1442.27 603.466L1361.57 490.763L1442.01 615.144L1441.2 630.719L1441.05 630.954L1441.12 632.232L1424.57 948.203H1446.68L1449.33 784.998L1529.57 660.922L1449.53 772.729Z" fill="#3F3D56"/>
</g>
<g id="large-tree">
<g id="big-cloud">
<path id="Vector_6" d="M1190.05 293.244C1189.22 293.243 1188.42 292.927 1187.81 292.361C1187.2 291.793 1186.83 291.017 1186.78 290.188C1184.63 260.986 1171.55 233.674 1150.16 213.715C1128.77 193.757 1100.64 182.625 1071.4 182.545C1067.9 182.545 1064.23 182.723 1060.47 183.075C1059.85 183.134 1059.22 183.011 1058.66 182.721C1058.1 182.43 1057.63 181.983 1057.32 181.436C1043.89 157.895 1023.83 138.835 999.655 126.636C975.476 114.437 948.245 109.639 921.361 112.842C894.476 116.044 869.129 127.104 848.481 144.641C827.835 162.179 812.801 185.418 805.26 211.458C805.06 212.156 804.636 212.767 804.051 213.197C803.467 213.626 802.756 213.848 802.032 213.83L801.16 213.803C800.705 213.787 800.252 213.771 799.795 213.771C777.617 213.84 756.132 221.502 738.901 235.483C721.671 249.464 709.731 268.924 705.064 290.636C704.908 291.373 704.504 292.035 703.92 292.51C703.335 292.986 702.605 293.244 701.852 293.244H481.959C481.527 293.246 481.1 293.162 480.7 292.996C480.3 292.832 479.937 292.591 479.632 292.285C479.325 291.979 479.083 291.617 478.917 291.217C478.752 290.818 478.667 290.39 478.667 289.957C478.667 289.525 478.752 289.096 478.917 288.698C479.083 288.298 479.325 287.935 479.632 287.63C479.937 287.323 480.3 287.082 480.7 286.918C481.1 286.753 481.527 286.669 481.959 286.67H699.225C704.695 264.088 717.56 243.99 735.768 229.585C753.976 215.181 776.477 207.298 799.681 207.197C807.941 180.439 823.784 156.658 845.285 138.745C866.785 120.831 893.017 109.556 920.795 106.289C948.572 103.022 976.7 107.903 1001.76 120.341C1026.82 132.778 1047.73 152.236 1061.96 176.35C1065.19 176.099 1068.35 175.972 1071.4 175.972C1102.3 176.055 1132.03 187.82 1154.63 208.913C1177.24 230.005 1191.06 258.868 1193.33 289.727C1193.36 290.157 1193.3 290.59 1193.16 291C1193.03 291.409 1192.81 291.787 1192.53 292.114C1192.25 292.439 1191.9 292.706 1191.52 292.899C1191.13 293.091 1190.71 293.206 1190.28 293.236C1190.2 293.242 1190.12 293.244 1190.05 293.244Z" fill="#FDFFED" fill-opacity="0.31"/>
<path id="Vector_7" d="M1151.38 334.565H612.619C611.747 334.565 610.912 334.215 610.296 333.589C609.68 332.964 609.333 332.116 609.333 331.233C609.333 330.349 609.68 329.501 610.296 328.876C610.912 328.251 611.747 327.9 612.619 327.9H1151.38C1152.25 327.9 1153.09 328.251 1153.7 328.876C1154.32 329.501 1154.67 330.349 1154.67 331.233C1154.67 332.116 1154.32 332.964 1153.7 333.589C1153.09 334.215 1152.25 334.565 1151.38 334.565Z" fill="#FDFFED" fill-opacity="0.22"/>
<path id="Vector_8" d="M743.392 382.551H563.275C562.407 382.551 561.573 382.2 560.959 381.575C560.345 380.95 560 380.102 560 379.218C560 378.334 560.345 377.487 560.959 376.862C561.573 376.236 562.407 375.886 563.275 375.886H743.392C744.26 375.886 745.093 376.236 745.708 376.862C746.321 377.487 746.667 378.334 746.667 379.218C746.667 380.102 746.321 380.95 745.708 381.575C745.093 382.2 744.26 382.551 743.392 382.551Z" fill="#FDFFED" fill-opacity="0.22"/>
</g>
<path id="Vector_9" d="M1904 969.039C1869.24 963.95 1835.81 959.622 1803.72 956.054L1816.08 932.945C1811.79 931.608 1793.21 944.977 1793.21 944.977L1808.93 878.136C1787.49 880.81 1777.48 948.986 1777.48 948.986L1753.17 926.261L1765.15 951.991C1666.96 942.343 1582.23 939.333 1511.01 940.024L1521.59 920.246C1517.29 918.909 1498.72 932.277 1498.72 932.277L1514.44 865.436C1493 868.11 1482.99 936.288 1482.99 936.288L1458.68 913.561L1471.36 940.813C1422.57 942.139 1373.89 945.805 1325.51 951.796C1336.05 921.055 1372.91 891.504 1372.91 891.504C1344.57 899.747 1329.83 913.177 1322.2 925.625C1320.66 862.469 1331.05 799.554 1352.89 739.775C1352.89 739.775 1295.71 860.088 1304.29 940.297L1305.38 954.545C1255.63 961.802 1230.67 969.039 1230.67 969.039H1904Z" fill="#3F3D56"/>
<path id="Vector_10" d="M1882.21 504.01C1882.21 705.296 1762.52 775.579 1614.87 775.579C1467.21 775.579 1347.51 705.296 1347.51 504.01C1347.51 302.721 1614.87 46.6525 1614.87 46.6525C1614.87 46.6525 1882.21 302.721 1882.21 504.01Z" fill="url(#paint2_linear)"/>
<path id="Vector_11" d="M1605.12 744.788L1607.87 576.329L1721.81 367.92L1608.29 549.902L1609.52 474.156L1688.05 323.375L1609.85 454.111L1612.07 317.878L1696.16 197.837L1612.41 296.455L1613.8 46.6525L1605.11 377.347L1605.81 363.704L1520.31 232.868L1604.44 389.892L1596.48 542.041L1596.24 538.003L1497.67 400.317L1595.95 552.27L1594.95 571.297L1594.77 571.584L1594.85 573.146L1574.64 959.161H1601.64L1604.88 759.776L1702.91 608.195L1605.12 744.788Z" fill="#3F3D56"/>
</g>
<path id="Path 944" d="M1204.43 947.712L1134.31 954.377H656.661L2.187 937.049C1.58592 937.516 1.03035 939.544 0.626771 942.742C0.223187 945.939 0 950.082 0 954.377C0 958.671 0.223187 962.813 0.626771 966.011C1.03035 969.208 1.58592 971.237 2.187 971.705H1622.97C1623.57 971.237 1624.12 969.208 1624.53 966.011C1624.93 962.813 1625.16 958.671 1625.16 954.377C1625.56 957.574 1625.16 950.082 1625.16 954.377C1625.16 966.012 1199.19 965.04 1204.43 947.712Z" fill="#3F3D56"/>
<path id="Vector_12" d="M429.88 949.553L424.403 976.628L526.26 1010.64L534.345 970.676L429.88 949.553Z" fill="#FFB6B6"/>
<path id="Vector_13" d="M440.12 944.436L429.332 997.755V997.758C427.508 1006.77 422.177 1014.69 414.513 1019.77C406.849 1024.86 397.48 1026.69 388.465 1024.86L387.361 1024.64L405.024 937.339L440.12 944.436Z" fill="#2F2E41"/>
<path id="Ellipse 276" d="M555.703 576.751C593.9 576.751 624.864 545.796 624.864 507.611C624.864 469.425 593.9 438.471 555.703 438.471C517.507 438.471 486.541 469.425 486.541 507.611C486.541 545.796 517.507 576.751 555.703 576.751Z" fill="#FEB8B8"/>
<path id="Path 1461" d="M620.3 447.963C609.96 431.177 593.775 418.807 574.859 413.237L566.368 419.431V411.388C561.825 410.693 557.228 410.425 552.635 410.589L545.309 417.215V411.139C534.464 412.487 524.015 416.066 514.621 421.651C505.228 427.237 497.095 434.707 490.733 443.592C474.825 466.518 472.14 498.414 487.787 521.524C492.081 508.328 497.295 495.947 501.591 482.752C504.967 483.212 508.388 483.228 511.768 482.801L516.993 470.612L518.453 482.286C534.651 480.875 558.675 477.778 574.029 474.94L572.536 465.984L581.469 473.426C586.173 472.343 588.967 471.361 588.736 470.61C600.156 489.015 614.132 500.771 625.551 519.176C629.888 493.224 634.88 471.645 620.3 447.963Z" fill="#2F2E41"/>
<path id="Ellipse 260" d="M567.808 959.903C666.16 959.903 745.888 937.608 745.888 910.106C745.888 882.604 666.16 860.309 567.808 860.309C469.457 860.309 389.728 882.604 389.728 910.106C389.728 937.608 469.457 959.903 567.808 959.903Z" fill="#2F2E41"/>
<path id="Vector_14" d="M694.052 685.26C691.674 670.956 689.221 656.378 682.57 643.492C678.201 635.052 671.263 627.01 661.911 625.341C660.069 625.177 658.258 624.758 656.532 624.096C653.79 622.776 616.966 601.761 611.114 598.101C606.089 594.959 598.156 589.141 594.156 589.141C590.132 589.052 574.701 592.643 514.476 587.936C504.345 592.001 494.535 596.823 485.128 602.361C484.935 602.233 422.619 635.686 420.279 635.598C415.844 635.411 411.724 638.249 409.181 641.822C406.641 645.396 405.449 649.82 404.201 654.097C417.812 684.399 430.264 714.739 443.876 745.04C444.513 746.181 444.852 747.465 444.861 748.772C444.586 750.129 444.008 751.405 443.168 752.505C436.492 763.224 436.704 776.707 437.433 789.305C438.164 801.904 439.065 815.212 433.433 826.505C431.901 829.605 429.909 832.443 428.452 835.543C425.04 842.565 423.808 865.024 425.8 872.568L675.489 879.719C670.12 864.966 694.052 685.26 694.052 685.26Z" fill="#0493E3"/>
<path id="Path 1421" d="M382.617 746.384C382.12 749.987 382.069 753.638 382.468 757.253L386.047 808.632C386.383 813.474 386.713 818.305 387.168 823.135C388.027 832.51 389.309 841.809 390.901 851.096C390.937 852.414 391.496 853.665 392.453 854.572C393.409 855.481 394.688 855.972 396.007 855.939C411.76 859.271 428.036 859.138 444.113 858.23C468.647 856.861 531.412 854.271 535.247 849.291C539.081 844.311 536.847 836.257 531.847 832.23C526.847 828.203 444.019 818.386 444.019 818.386C444.828 811.975 447.269 805.936 449.585 799.849C453.745 789.052 457.631 777.901 457.705 766.335C457.78 754.769 453.421 742.609 443.944 735.983C436.148 730.543 426.111 729.534 416.611 729.758C409.699 729.957 397.756 728.301 391.443 731.003C386.447 733.203 383.551 741.493 382.617 746.384Z" fill="#FBBEBE"/>
<path id="Path 1423" d="M694.495 862.526C698.641 860.945 703.212 861.517 707.657 862.115C721.967 864.069 736.487 866.074 749.75 871.788C755.976 874.454 761.904 878.013 766.114 883.252C769.847 887.97 772.028 893.747 774.096 899.436L778.879 912.533C780.912 917.453 782.315 922.612 783.051 927.883C784.546 943.557 773.823 958.334 760.336 966.477C746.85 974.62 730.972 977.519 715.504 980.557C700.036 983.594 684.508 986.955 669.104 990.516C661.92 992.38 654.629 993.814 647.273 994.811C630.785 996.677 613.551 993.927 597.884 999.38C591.658 1001.56 585.543 1004.8 579.084 1006.3C574.791 1007.2 570.451 1007.87 566.083 1008.28L536.432 1011.67C530.403 1012.47 524.334 1012.94 518.251 1013.06C505.3 1013.06 492.56 1010 479.984 1006.93C478.648 1006.7 477.376 1006.18 476.251 1005.42C474.259 1003.85 473.823 1001.08 473.536 998.565C472.267 987.435 471.155 976.293 470.203 965.139C469.904 961.516 469.68 957.594 471.66 954.545C474.151 950.812 479.008 949.639 483.442 948.917C502.242 945.842 521.286 944.521 540.328 944.97C547.563 937.738 559.494 937.7 568.971 933.766C572.458 932.165 575.832 930.331 579.071 928.275C596.023 918.388 614.967 912.404 634.524 910.759C638.355 910.642 642.16 910.099 645.87 909.141C653.203 906.863 659.892 900.662 667.426 902.182C668.359 899.605 669.007 896.156 671.159 894.388C672.225 893.479 673.549 892.87 674.533 891.898C676.613 889.795 676.8 886.483 676.488 883.545C676.176 880.607 675.479 877.595 676.239 874.73C676.555 873.647 677.02 872.611 677.622 871.655C681.344 865.214 686.985 861.903 694.495 862.526Z" fill="#2F2E41"/>
<path id="Path 1430" d="M403.48 655.02C402.268 656.29 401.327 657.793 400.716 659.44C390.651 682.119 384.704 706.409 383.157 731.173C383.185 732.38 382.907 733.574 382.348 734.646C381.799 735.359 381.185 736.022 380.517 736.626C379.936 737.316 379.495 738.113 379.221 738.973C378.948 739.833 378.847 740.739 378.923 741.637C378.999 742.537 379.252 743.413 379.667 744.214C380.081 745.016 380.649 745.728 381.34 746.311C381.453 746.405 381.569 746.497 381.688 746.585C383.743 742.72 388.661 741.456 393.033 741.12C413.967 739.465 434.415 749.2 455.411 748.466C453.929 743.349 451.799 738.432 450.591 733.253C445.248 710.259 458.573 685.224 450.404 663.076C448.772 658.644 446.045 654.287 441.749 652.344C439.971 651.627 438.109 651.134 436.208 650.878C430.903 649.92 420.341 645.824 415.212 647.467C413.319 648.078 412.572 649.857 411.003 650.933C408.619 652.455 405.456 653.015 403.48 655.02Z" fill="#0493E3"/>
<path id="Path 1421_2" d="M694.201 731.003C687.888 728.301 675.945 729.957 669.033 729.758C659.533 729.534 649.496 730.543 641.7 735.983C632.223 742.609 627.864 754.769 627.939 766.335C628.013 777.901 631.899 789.052 636.059 799.849C638.375 805.936 640.816 811.975 641.625 818.386C641.625 818.386 558.797 828.203 553.797 832.23C548.797 836.256 546.563 844.311 550.397 849.291C554.232 854.271 673.884 859.271 689.637 855.938C690.957 855.972 692.235 855.481 693.192 854.572C694.149 853.665 694.707 852.414 694.743 851.096C696.335 841.809 697.617 832.51 698.476 823.135C698.931 818.305 699.261 813.474 699.597 808.632L703.176 757.253C703.576 753.638 703.525 749.987 703.027 746.384C702.093 741.493 699.197 733.203 694.201 731.003Z" fill="#FBBEBE"/>
<path id="Path 1430_2" d="M674.641 650.933C673.072 649.857 672.325 648.078 670.432 647.467C665.303 645.824 654.741 649.92 649.436 650.878C647.536 651.134 645.673 651.627 643.895 652.344C639.599 654.287 636.872 658.644 635.24 663.076C627.071 685.224 640.396 710.259 635.053 733.253C633.845 738.432 631.715 743.349 630.233 748.466C651.229 749.2 671.677 739.465 692.611 741.12C696.983 741.456 701.901 742.72 703.956 746.585C704.076 746.497 704.192 746.405 704.305 746.311C704.995 745.728 705.564 745.016 705.979 744.214C706.393 743.413 706.645 742.537 706.723 741.637C706.799 740.739 706.697 739.833 706.424 738.973C706.149 738.113 705.709 737.316 705.127 736.626C704.46 736.022 703.847 735.359 703.296 734.646C702.739 733.574 702.46 732.38 702.487 731.173C700.94 706.409 694.995 682.119 684.928 659.44C684.317 657.793 683.377 656.29 682.164 655.02C680.188 653.015 677.025 652.455 674.641 650.933Z" fill="#0493E3"/>
<path id="Vector_15" d="M709.657 988.204L706.017 1015.59L598.633 1014.58L604.007 974.165L709.657 988.204Z" fill="#FFB6B6"/>
<path id="Vector_16" d="M737.137 984.747L725.399 1073.04L724.281 1072.89C715.165 1071.68 706.903 1066.9 701.312 1059.6C695.723 1052.3 693.263 1043.07 694.473 1033.96V1033.96L701.643 980.032L737.137 984.747Z" fill="#2F2E41"/>
<path id="Path 1427" d="M457.025 876.383C457.025 877.628 455.071 876.383 454.892 875.05C453.523 864.978 445.527 856.674 436.212 852.641C426.897 848.607 416.287 848.395 406.2 849.354C390.945 850.797 373.821 856.637 368.243 870.891C366.923 874.224 354.557 903.895 355.764 910.567C359.015 928.37 371.193 943.596 385.951 954.141C400.708 964.686 417.951 970.985 435.151 976.667C480.627 991.66 527.283 1002.8 574.627 1009.97C582.297 1011.13 590.044 1012.2 597.391 1014.66C603.965 1016.87 610.117 1020.16 616.544 1022.75C631.488 1028.75 647.565 1030.9 663.492 1033C666.207 1033.35 669.32 1033.6 671.325 1031.76C673.916 1029.36 673.059 1025.17 672.321 1021.72C669.619 1008.61 671.887 994.962 678.685 983.428C681.352 978.947 684.819 974.352 684.315 969.165C683.717 963.115 677.689 958.833 671.687 957.861C665.684 956.889 659.583 958.322 653.553 959.106C651.488 959.58 649.323 959.366 647.389 958.495C646.495 957.89 645.681 957.172 644.973 956.355C640.821 952.351 635.508 949.763 629.793 948.965C624.08 948.167 618.26 949.198 613.168 951.911C610.939 953.156 607.568 950.379 605.248 949.334L579.059 937.482C548.972 923.875 518.736 910.205 486.905 901.59C484.367 901.09 481.952 900.088 479.807 898.639C478.225 897.394 477.092 895.706 475.635 894.319C472.459 891.318 468.035 890.123 464.228 887.994C460.421 885.865 456.153 880.652 457.025 876.383Z" fill="#2F2E41"/>
<path id="Vector_17" d="M524.823 858.392C535.132 858.392 543.489 850.038 543.489 839.731C543.489 829.425 535.132 821.07 524.823 821.07C514.513 821.07 506.156 829.425 506.156 839.731C506.156 850.038 514.513 858.392 524.823 858.392Z" fill="#FBBEBE"/>
<path id="Vector_18" d="M566.156 858.392C576.465 858.392 584.823 850.038 584.823 839.731C584.823 829.425 576.465 821.07 566.156 821.07C555.847 821.07 547.489 829.425 547.489 839.731C547.489 850.038 555.847 858.392 566.156 858.392Z" fill="#FBBEBE"/>
<path id="Vector_19" d="M681.38 881.781H424.929C421.935 881.777 419.064 880.587 416.947 878.47C414.829 876.355 413.639 873.485 413.635 870.492V714.957C413.639 711.964 414.829 709.094 416.947 706.979C419.064 704.862 421.935 703.672 424.929 703.668H681.38C684.375 703.672 687.245 704.862 689.363 706.979C691.48 709.094 692.671 711.964 692.675 714.957V870.492C692.671 873.485 691.48 876.355 689.363 878.47C687.245 880.587 684.375 881.777 681.38 881.781Z" fill="#3F3D56"/>
<path id="Ellipse 263" d="M552.532 800.194C556.659 800.194 560.004 796.85 560.004 792.724C560.004 788.599 556.659 785.255 552.532 785.255C548.405 785.255 545.06 788.599 545.06 792.724C545.06 796.85 548.405 800.194 552.532 800.194Z" fill="white"/>
<path id="Vector_20" d="M372 131.96C372 131.96 381.749 95.6747 450 107.77C518.251 119.865 528 131.96 528 131.96H372Z" fill="url(#paint3_linear)" fill-opacity="0.4"/>
<path id="Vector_21" d="M33.3333 83.9745C33.3333 83.9745 43.1666 49.5035 112 60.9939C180.833 72.4841 190.667 83.9745 190.667 83.9745H33.3333Z" fill="url(#paint4_linear)" fill-opacity="0.2"/>
<path id="Vector_22" d="M606.667 131.96C606.667 131.96 551.6 101.969 528 131.96H606.667Z" fill="url(#paint5_linear)" fill-opacity="0.2"/>
<path id="Vector_23" d="M350.667 49.3184C350.667 49.3184 296.533 19.3275 273.333 49.3184H350.667Z" fill="url(#paint6_linear)" fill-opacity="0.4"/>
<path id="Vector_24" d="M1673.33 109.3C1673.33 109.3 1683.16 74.8292 1752 86.3195C1820.83 97.8098 1830.67 109.3 1830.67 109.3H1673.33Z" fill="url(#paint7_linear)" fill-opacity="0.2"/>
<path id="Vector_25" d="M598.667 326.567C598.667 326.567 959.257 179.612 1182.67 326.567H598.667Z" fill="url(#paint8_linear)" fill-opacity="0.4"/>
<path id="Vector_26" d="M-292 410.542C-292 410.542 68.5905 263.587 292 410.542H-292Z" fill="url(#paint9_linear)" fill-opacity="0.4"/>
<path id="Vector_27" d="M1161.33 151.954C1161.33 151.954 1374.56 106.968 1506.67 151.954H1161.33Z" fill="url(#paint10_linear)" fill-opacity="0.3"/>
<g id="cat">
<path id="Vector_28" d="M927.914 785.552L927.319 764.394C925.55 756.01 903.455 780.864 900.951 781.297C894.476 779.58 887.764 778.927 881.079 779.362C883.948 741.6 877.211 758.436 859.354 774.609C803.256 799.332 818.73 887.544 880.932 891.243C937.499 897.503 969.751 822.182 927.914 785.552Z" fill="#3F3D56"/>
<path id="Vector_29" d="M930.708 871.626C953.193 872.444 977.309 953.082 924.045 950.703C896.485 949.473 847.431 952.312 847.431 952.312C847.431 952.312 812.513 893.199 831.285 858.546L930.708 871.626Z" fill="#3F3D56"/>
<path id="Vector_30" d="M895.98 953.192C895.618 952.741 875.415 953.04 876.304 951.414L878.45 910.487C882.092 905.18 876.979 951.231 877.823 950.745L895.54 951.672C896.439 951.203 911.734 909.97 913.546 910.875C913.635 910.914 913.718 910.969 913.786 911.038C913.854 911.109 913.908 911.191 913.944 911.282C913.982 911.372 914 911.471 913.999 911.568C913.998 911.667 913.978 911.763 913.94 911.854C913.21 912.326 897.386 953.524 895.98 953.192Z" fill="white"/>
<path id="Vector_31" d="M942.028 953.009C942.208 959.73 910.26 958.055 911.144 951.389C910.964 944.67 942.912 946.344 942.028 953.009Z" fill="#3F3D56"/>
<path id="Vector_32" d="M919.235 946.776C917.395 947.135 912.875 915.976 931.762 912.593C913.084 921.545 921.24 944.929 919.235 946.776Z" fill="white"/>
<path id="tail" d="M1028.79 922.276C1018.61 905.393 996.917 911.688 987.799 926.165C976.964 943.64 935.415 928.043 939.419 952.485C966.095 948.333 1043.18 971.353 1028.79 922.276Z" fill="#3F3D56"/>
<path id="Vector_33" d="M877.739 886.167C860.152 888.686 830.596 865.304 830.112 858.846C830.024 858.67 830.007 858.466 830.066 858.278C830.123 858.09 830.252 857.931 830.424 857.838C830.595 857.743 830.796 857.721 830.984 857.774C831.172 857.827 831.332 857.953 831.431 858.123C836.907 866.923 844.714 874.001 853.968 878.557C868.243 886.825 895.031 888.401 931.599 871.359C915.504 881.605 896.748 886.763 877.739 886.167Z" fill="white"/>
<path id="Vector_34" d="M882.871 847.974C879.053 849.014 876.303 839.253 879.571 842.477C879.519 843.482 879.845 844.466 880.479 845.212C881.112 845.959 882.001 846.407 882.951 846.457C885.992 846.936 886.031 843.392 887.483 842.132C889.764 844.289 885.443 848.493 882.871 847.974Z" fill="white"/>
<path id="Vector_35" d="M870.261 948.861C868.8 948.984 860.521 911.146 859.868 910.545C859.819 910.354 859.847 910.153 859.945 909.982C860.043 909.813 860.203 909.69 860.391 909.64C862.341 908.965 870.168 947.389 871.008 947.932C871.036 948.045 871.037 948.164 871.013 948.277C870.988 948.39 870.937 948.497 870.864 948.586C870.792 948.677 870.7 948.749 870.595 948.796C870.491 948.844 870.376 948.866 870.261 948.861Z" fill="white"/>
<path id="Vector_36" d="M901.619 955.538C901.811 962.258 869.064 960.543 869.961 953.878C869.768 947.159 902.515 948.874 901.619 955.538Z" fill="#3F3D56"/>
<path id="Vector_37" d="M876.168 953.43C876.348 960.15 844.4 958.477 845.284 951.811C845.104 945.091 877.052 946.766 876.168 953.43Z" fill="#3F3D56"/>
<path id="Vector_38" d="M890.192 833.756C890.228 836.855 877.476 836.187 877.838 833.108C877.802 830.009 890.554 830.678 890.192 833.756Z" fill="white"/>
<path id="Vector_39" d="M843.975 831.334C845.807 829.405 848.048 827.894 850.54 826.907C853.031 825.921 855.714 825.483 858.398 825.622C861.082 825.764 863.703 826.479 866.078 827.722C868.452 828.963 870.523 830.7 872.144 832.811C892.479 816.133 865.327 785.063 845.494 802.321C843.403 804.09 841.699 806.259 840.484 808.696C839.27 811.132 838.571 813.786 838.428 816.497C838.287 819.208 838.704 821.922 839.658 824.472C840.611 827.022 842.079 829.356 843.975 831.334Z" fill="white"/>
<path id="Vector_40" d="M898.817 834.208C900.651 832.278 902.892 830.768 905.383 829.78C907.875 828.794 910.556 828.355 913.24 828.496C915.924 828.636 918.545 829.353 920.921 830.594C923.296 831.837 925.365 833.573 926.988 835.683C947.323 819.007 920.171 787.937 900.337 805.195C898.247 806.964 896.541 809.133 895.328 811.569C894.113 814.006 893.415 816.66 893.272 819.371C893.131 822.082 893.548 824.795 894.501 827.345C895.455 829.895 896.923 832.23 898.817 834.208Z" fill="white"/>
<path id="left-eye" d="M849.882 812.285C851.636 812.428 853.266 813.269 854.424 814.631C855.582 815.993 856.178 817.769 856.082 819.58C855.987 821.392 855.21 823.095 853.915 824.328C852.622 825.563 850.912 826.229 849.152 826.185C847.396 826.044 845.767 825.203 844.608 823.84C843.451 822.478 842.855 820.703 842.951 818.891C843.046 817.08 843.823 815.376 845.118 814.142C846.412 812.909 848.12 812.243 849.882 812.285Z" fill="#3F3D56"/>
<path id="right-eye" d="M904.724 815.159C906.479 815.3 908.11 816.141 909.268 817.504C910.426 818.867 911.02 820.643 910.926 822.453C910.831 824.264 910.054 825.969 908.759 827.202C907.464 828.436 905.756 829.101 903.995 829.059C902.24 828.917 900.61 828.076 899.452 826.714C898.294 825.352 897.699 823.576 897.793 821.765C897.889 819.953 898.667 818.25 899.962 817.016C901.255 815.783 902.964 815.116 904.724 815.159Z" fill="#3F3D56"/>
<path id="Vector_41" d="M913.207 838.059C914.859 838.187 916.396 838.897 917.493 840.039C918.591 841.182 919.161 842.665 919.081 844.174C919.003 845.684 918.28 847.1 917.069 848.121C915.859 849.142 914.255 849.688 912.599 849.642C910.947 849.515 909.408 848.805 908.311 847.662C907.213 846.52 906.643 845.037 906.723 843.526C906.801 842.017 907.524 840.602 908.735 839.581C909.945 838.56 911.549 838.013 913.207 838.059Z" fill="#FF6584"/>
<path id="Vector_42" d="M857.976 835.165C859.525 835.288 860.965 835.993 861.991 837.132C863.016 838.271 863.545 839.752 863.465 841.26C863.387 842.771 862.705 844.189 861.567 845.214C860.428 846.239 858.921 846.789 857.368 846.748C855.82 846.627 854.38 845.922 853.355 844.783C852.329 843.645 851.8 842.163 851.879 840.654C851.959 839.144 852.64 837.725 853.779 836.702C854.917 835.677 856.423 835.125 857.976 835.165Z" fill="#FF6584"/>
</g>
<path id="Vector_43" d="M157.333 570.493C271.472 570.493 364 477.993 364 363.889C364 249.785 271.472 157.286 157.333 157.286C43.1946 157.286 -49.3333 249.785 -49.3333 363.889C-49.3333 477.993 43.1946 570.493 157.333 570.493Z" fill="#6C63FF"/>
<path id="Vector_44" opacity="0.2" d="M4.44637 225.265C-14.8601 270.495 -17.4792 321.128 -2.94278 368.115C11.5936 415.102 42.3381 455.38 83.7969 481.754C125.256 508.128 174.728 518.877 223.372 512.083C272.016 505.288 316.663 481.391 349.333 444.662C337.54 472.296 319.888 497.032 297.601 517.155C275.315 537.278 248.927 552.308 220.265 561.204C191.603 570.099 161.353 572.647 131.61 568.671C101.867 564.695 73.3433 554.29 48.0143 538.176C22.6851 522.064 1.15666 500.628 -15.0797 475.356C-31.316 450.082 -41.872 421.576 -46.0162 391.812C-50.1605 362.046 -47.794 331.735 -39.0805 302.977C-30.367 274.219 -15.5151 247.703 4.44637 225.265Z" fill="black"/>
<path id="Vector_45" d="M157.999 363.889H158.596L169.333 949.045H146.667L157.999 363.889Z" fill="#3F3D56"/>
<path id="Vector_46" d="M-4.66659 855.74L-17.3333 950.378H8.00008L-4.66659 855.74Z" fill="#3F3D56"/>
<path id="Vector_47" d="M128.667 902.392L121.333 941.047H136L128.667 902.392Z" fill="#3F3D56"/>
<path id="Vector_48" d="M192 877.067L182.667 949.045H201.333L192 877.067Z" fill="#3F3D56"/>
<path id="Vector_49" d="M12.6667 855.74L0 950.378H25.3333L12.6667 855.74Z" fill="#3F3D56"/>
<path id="Vector_50" d="M187.333 889.063L180 945.046H194.667L187.333 889.063Z" fill="#3F3D56"/>
<path id="Vector_51" d="M173.333 881.066L164 953.044H182.667L173.333 881.066Z" fill="#3F3D56"/>
<path id="Vector_52" d="M25.9999 875.734L13.3333 970.372H38.6666L25.9999 875.734Z" fill="#3F3D56"/>
<path id="Vector_53" d="M150.667 891.729L141.333 963.707H160L150.667 891.729Z" fill="#3F3D56"/>
<path id="Vector_54" d="M182 879.733L172 951.711H192L182 879.733Z" fill="#3F3D56"/>
<path id="Vector_55" d="M1631.33 853.074L1618.67 947.712H1644L1631.33 853.074Z" fill="#3F3D56"/>
<path id="Vector_56" d="M1660.67 873.068L1648 967.706H1673.33L1660.67 873.068Z" fill="#3F3D56"/>
<path id="Vector_57" d="M1615.33 854.407L1602.67 949.045H1628L1615.33 854.407Z" fill="#3F3D56"/>
<path id="Vector_58" d="M1644.67 874.401L1632 969.039H1657.33L1644.67 874.401Z" fill="#3F3D56"/>
<path id="Vector_59" d="M1599.33 854.407L1586.67 949.045H1612L1599.33 854.407Z" fill="#3F3D56"/>
<path id="Vector_60" d="M415.675 100.591L427.949 90.7766C418.413 89.7249 414.496 94.9237 412.892 99.0386C405.443 95.9462 397.333 99.9989 397.333 99.9989L421.892 108.912C420.653 105.604 418.496 102.717 415.675 100.591Z" fill="#3F3D56"/>
<path id="Vector_61" d="M914.341 392.502L926.616 382.688C917.08 381.636 913.163 386.835 911.559 390.949C904.109 387.857 896 391.91 896 391.91L920.559 400.824C919.32 397.515 917.163 394.628 914.341 392.502Z" fill="#3F3D56"/>
<path id="Vector_62" d="M1690.35 56.6041L1702.61 46.79C1693.08 45.7383 1689.16 50.9371 1687.56 55.052C1680.11 51.9596 1672 56.0122 1672 56.0122L1696.56 64.9251C1695.32 61.6169 1693.16 58.7305 1690.35 56.6041Z" fill="#3F3D56"/>
<path id="Vector_63" d="M602.341 200.56L614.616 190.746C605.08 189.694 601.163 194.893 599.559 199.008C592.109 195.915 584 199.969 584 199.969L608.559 208.882C607.32 205.574 605.163 202.686 602.341 200.56Z" fill="#3F3D56"/>
<path id="Vector_64" d="M1106.63 495.587L1122.67 482.7C1110.21 481.319 1105.09 488.146 1102.99 493.549C1093.26 489.489 1082.67 494.81 1082.67 494.81L1114.75 506.513C1113.13 502.169 1110.32 498.379 1106.63 495.587Z" fill="#3F3D56"/>
<path id="Vector_65" d="M1877.01 156.574L1889.28 146.759C1879.75 145.708 1875.83 150.906 1874.23 155.021C1866.77 151.929 1858.67 155.982 1858.67 155.982L1883.23 164.895C1881.99 161.587 1879.83 158.7 1877.01 156.574Z" fill="#3F3D56"/>
<path id="Vector_66" d="M401.008 285.868L413.283 276.053C403.747 275.002 399.829 280.2 398.225 284.315C390.776 281.223 382.667 285.276 382.667 285.276L407.225 294.189C405.987 290.881 403.829 287.994 401.008 285.868Z" fill="#3F3D56"/>
<path id="Vector_67" d="M899.674 577.779L911.949 567.965C902.413 566.913 898.496 572.112 896.892 576.226C889.442 573.134 881.333 577.187 881.333 577.187L905.892 586.101C904.653 582.792 902.496 579.905 899.674 577.779Z" fill="#3F3D56"/>
</g>
</g>
</g>
<defs>
<filter id="filter0_i" x="1746.67" y="-33.3232" width="224" height="227.932" filterUnits="userSpaceOnUse" color-interpolation-filters="sRGB">
<feFlood flood-opacity="0" result="BackgroundImageFix"/>
<feBlend mode="normal" in="SourceGraphic" in2="BackgroundImageFix" result="shape"/>
<feColorMatrix in="SourceAlpha" type="matrix" values="0 0 0 0 0 0 0 0 0 0 0 0 0 0 0 0 0 0 127 0" result="hardAlpha"/>
<feOffset dy="4"/>
<feGaussianBlur stdDeviation="2"/>
<feComposite in2="hardAlpha" operator="arithmetic" k2="-1" k3="1"/>
<feColorMatrix type="matrix" values="0 0 0 0 0 0 0 0 0 0 0 0 0 0 0 0 0 0 0.25 0"/>
<feBlend mode="normal" in2="shape" result="effect1_innerShadow"/>
</filter>
<linearGradient id="paint0_linear" x1="960" y1="969.705" x2="960" y2="1097" gradientUnits="userSpaceOnUse">
<stop offset="0.649728" stop-color="#FDFFED"/>
<stop offset="1" stop-color="#FFF8D6"/>
</linearGradient>
<radialGradient id="paint1_angular" cx="0" cy="0" r="1" gradientUnits="userSpaceOnUse" gradientTransform="translate(1457.51 499.603) rotate(90) scale(298.331 218.843)">
<stop stop-color="#1F9246"/>
<stop offset="1" stop-color="#7EBF94"/>
</radialGradient>
<linearGradient id="paint2_linear" x1="1688" y1="161.951" x2="1439.45" y2="594.551" gradientUnits="userSpaceOnUse">
<stop offset="0.020257" stop-color="#9CFFBD"/>
<stop offset="0.321474" stop-color="#53F189"/>
<stop offset="1" stop-color="#39724C"/>
</linearGradient>
<linearGradient id="paint3_linear" x1="450" y1="105.301" x2="450" y2="131.96" gradientUnits="userSpaceOnUse">
<stop stop-color="#CBCBCB"/>
<stop offset="1" stop-color="#DFDFDF"/>
</linearGradient>
<linearGradient id="paint4_linear" x1="112" y1="58.6489" x2="112" y2="83.9745" gradientUnits="userSpaceOnUse">
<stop stop-color="#CBCBCB"/>
<stop offset="1" stop-color="#DFDFDF"/>
</linearGradient>
<linearGradient id="paint5_linear" x1="567.333" y1="118.631" x2="567.333" y2="131.96" gradientUnits="userSpaceOnUse">
<stop stop-color="#CBCBCB"/>
<stop offset="1" stop-color="#DFDFDF"/>
</linearGradient>
<linearGradient id="paint6_linear" x1="312" y1="35.9891" x2="312" y2="49.3184" gradientUnits="userSpaceOnUse">
<stop stop-color="#CBCBCB"/>
<stop offset="1" stop-color="#DFDFDF"/>
</linearGradient>
<linearGradient id="paint7_linear" x1="1752" y1="83.9745" x2="1752" y2="109.3" gradientUnits="userSpaceOnUse">
<stop stop-color="#CBCBCB"/>
<stop offset="1" stop-color="#DFDFDF"/>
</linearGradient>
<linearGradient id="paint8_linear" x1="890.667" y1="261.254" x2="890.667" y2="326.567" gradientUnits="userSpaceOnUse">
<stop stop-color="#CBCBCB"/>
<stop offset="1" stop-color="#DFDFDF"/>
</linearGradient>
<linearGradient id="paint9_linear" x1="0" y1="345.228" x2="0" y2="410.542" gradientUnits="userSpaceOnUse">
<stop stop-color="#CBCBCB"/>
<stop offset="1" stop-color="#DFDFDF"/>
</linearGradient>
<linearGradient id="paint10_linear" x1="1334" y1="131.96" x2="1334" y2="151.954" gradientUnits="userSpaceOnUse">
<stop stop-color="#CBCBCB"/>
<stop offset="1" stop-color="#DFDFDF"/>
</linearGradient>
<clipPath id="clip0">
<rect width="1920" height="1053" fill="white"/>
</clipPath>
</defs>
</svg>
